<?xml version="1.0" encoding="utf-8"?>
<!-- Generator: Adobe Illustrator 18.0.0, SVG Export Plug-In . SVG Version: 6.00 Build 0)  -->
<!DOCTYPE svg PUBLIC "-//W3C//DTD SVG 1.1//EN" "http://www.w3.org/Graphics/SVG/1.1/DTD/svg11.dtd">
<svg version="1.1" id="Layer_1" xmlns="http://www.w3.org/2000/svg" xmlns:xlink="http://www.w3.org/1999/xlink" x="0px" y="0px"
	 viewBox="0 0 100 100" enable-background="new 0 0 100 100" xml:space="preserve">
<g id="Captions">
</g>
<g id="Your_Icon">
	<path fill="#1F357C" d="M43.5,43l-0.4-3.5l-4.7,3.8l-7.3,3.1c0,0-1.5-0.9-1.7-1.6l-2.5,1.1c0,0-0.6,0.3-0.5-0.4
		c0,0-0.3-0.6-1.7,0.1l0.4,0.7c0,0,0.7,1.4-0.9,1l-2-1.6l0.1-3.4c0,0,0.4-1.2,0.9-1.3c0.5-0.1,2-0.7,2-0.7l0.4-0.7l1.1,0.4l3.9-1.7
		l2.1-1.4l5.7-4.8l1.5-2.5l0.2-1.4l0.9-0.6c0,0,2.5-6,2.6-6.6c0.1-0.5,0.6-2,1.6-2.6c1-0.6,3.4-1.7,3.7-2.1l0.1-0.9l-1.3-0.6
		c0,0-1.3,0.2-0.9-1.1l-0.2-0.6l0.3-0.5l-0.4-0.4l0.1-0.4l0.4-0.4l0.2-1.2l-0.5-0.6l-0.1-0.5l1.9-1.8l0.3-0.4l-0.3-0.6l0-0.7
		c0,0-2.9-0.9-3.4-1.4s0.2-0.7,0.7-0.9c0.5-0.2,2.8,0.1,2.8,0.1l1.8-2.8c0,0,2.5-0.7,5.2-0.4c2.7,0.2,3.4,1.3,3.9,1.6
		c0.5,0.3,1.9,2,2.3,3.7c0.3,1.3-0.1,5.4-1,5.9c-0.3,0.2-0.8-0.4-0.9-0.2c-0.5,0.6-1.2,2.1-1.2,2.1l-0.8,0.1l-0.5,1.1l1.1,0
		l-0.4,1.4l4.9,2.5c0,0,2,1.4,2.4,2.4l5.9,9.7c0,0,0.9,1.4,1.5,4.8c0.6,3.4,3.1,12.1,3.1,12.1s1,1.9-0.9,2l0.7,0.9l1,0.6
		c0,0,0.1-0.5,0.6-0.4c0.5,0.1,0.5,0.5,0.7,0.8c0.1,0.3,0,2.4,0,2.4l-0.9,1.3c0,0-1,1.1-1.7,0.5c0,0,0,1.2-1.2,0.8c0,0,0,0.6-1,0
		S70.2,54,70.2,54l-0.5-2.7l-1.4-0.6L68.3,49c0,0-1.7-4.8-1.9-9.4l-0.4-0.5l0.5-0.6l-0.8,0l-0.1-0.8l-2.8-5c0,0,0.4,7,1.4,10.3
		c1,3.3,3.3,9.3,3.3,9.3s0.1,0.5-0.5,0.6c-0.6,0.1-1.2,0.3-1.2,0.3L71,73.6c0,0,1.7,5.7,2.4,8.2c0.7,2.5,0,2.9,0,2.9
		s1.5,6.1,1.3,6.6s0,1-2.6,1.8c-2.7,0.7,0.3-0.1,0.3-0.1s0.9,1.8,0,4.4l-3.7,1.2l-0.7-1l-3,1.8c0,0-5.5,1.4-7.4,0.2
		c0,0-2.9-2.9,1.1-4.1c4-1.2,2.4-0.3,2.4-0.3l2-2.2l-0.6-0.6l0.7-4.2l-0.6-7.3l-1-6c0,0-5.3-10.2-6.8-14.4c0,0-6.2,8.2-8.3,9
		l-0.9,0.7l0.3,1.2l-0.6,0.9l0.5,0.9c0,0-1.2,18.2-1.3,19.4c-0.1,1.3-2.5,0-2.5,0s0,2.6-1.1,4.2c-1.1,1.6-1.1,1.3-1.1,1.3l-4.3-1
		l0.4-1.1c0,0-4.5-0.2-5.9-0.8c-1.4-0.7-5.2-2.3-5.2-2.3s-2.1-4.2,3.2-2.6c1.6,0.5,4.2-0.1,4.2-0.1l1.6-1.5l-0.4-0.2l2.2-17.6
		c0,0,0.5-3,1.4-4.2c0.9-1.2,6.8-12.2,6.8-12.2l0.1-0.6l-2.4-0.3l1-7.2"/>
</g>
</svg>
